first trial
nRows=22
nColumns=38

# SIMM Motion File Header:
name Sujet_08_velo_60.mvnx
datacolumns 38
datarows 22
otherdata 1
range 11.6660 12.0160
endheader
time pelvis_tilt  pelvis_list  pelvis_rotation  pelvis_tx  pelvis_ty  pelvis_tz  hip_flexion_r  hip_adduction_r  hip_rotation_r  knee_angle_r  ankle_angle_r  subtalar_angle_r  mtp_angle_r  hip_flexion_l  hip_adduction_l  hip_rotation_l  knee_angle_l  ankle_angle_l  subtalar_angle_l  mtp_angle_l  lumbar_extension  lumbar_bending  lumbar_rotation  arm_flex_r  arm_add_r  arm_rot_r  elbow_flex_r  pro_sup_r  wrist_flex_r  wrist_dev_r  arm_flex_l  arm_add_l  arm_rot_l  elbow_flex_l  pro_sup_l  wrist_flex_l  wrist_dev_l
11.6660	-22.6051	-2.1411	15.8250	0.0000	1.2500	-0.0000	77.2361	-3.2984	-9.9488	59.2031	-10.4183	3.0594	-0.0000	71.5531	-0.4491	-3.6882	87.1330	-17.5344	4.4404	0.0000	-11.6053	-0.7187	2.1175	85.2432	-4.4134	32.0316	-7.9039	83.4431	-33.2984	-16.7088	77.9646	6.0202	40.2151	-6.1567	76.7902	-32.1123	-14.8803	
11.6830	-22.6707	-2.2429	16.1430	0.0000	1.2500	-0.0000	74.2939	-3.3992	-11.1612	55.1993	-11.5439	2.3497	-0.0000	73.8276	0.0266	-2.7298	90.2661	-17.1503	4.5530	-0.0000	-11.5525	-0.7059	2.0626	85.2814	-4.6706	31.8238	-7.9461	83.5193	-33.2512	-16.8382	78.0343	6.0891	40.2728	-6.1494	77.0096	-32.1396	-14.9315	
11.7000	-22.7277	-2.3073	16.4774	0.0000	1.2500	-0.0000	71.3494	-3.4690	-12.3956	51.3542	-12.6809	1.8058	-0.0000	76.1272	0.6071	-1.8232	93.1486	-16.7555	4.6908	0.0000	-11.4982	-0.7074	2.0005	85.2603	-4.9242	31.6444	-7.9654	83.5351	-33.2059	-16.9707	78.0557	6.1576	40.3307	-6.1416	77.2197	-32.1657	-14.9674	
11.7160	-22.7635	-2.3195	16.8288	0.0000	1.2500	-0.0000	68.3829	-3.5093	-13.7002	47.6479	-13.8350	1.5794	0.0000	78.4573	1.3113	-0.9787	95.7956	-16.3543	4.9189	-0.0000	-11.4446	-0.7286	1.9270	85.1571	-5.1616	31.5501	-7.9493	83.4378	-33.1663	-17.1083	78.0111	6.2252	40.3705	-6.1349	77.4153	-32.1884	-14.9778	
11.7330	-22.7900	-2.2942	17.1968	0.0000	1.2500	-0.0000	65.4159	-3.5165	-15.0286	44.0876	-14.9936	1.5223	0.0000	80.8117	2.1122	-0.2025	98.1965	-15.9424	5.1730	-0.0000	-11.3898	-0.7642	1.8464	84.9947	-5.3946	31.4838	-7.9105	83.2799	-33.1287	-17.2490	77.9183	6.2918	40.4104	-6.1273	77.6015	-32.2098	-14.9729	
11.7500	-22.8163	-2.2445	17.5755	0.0000	1.2500	-0.0000	62.5931	-3.5199	-16.2145	40.8866	-16.0369	1.4555	-0.0000	83.1300	2.9602	0.4743	100.2386	-15.5445	5.3352	0.0000	-11.3350	-0.8125	1.7665	84.8184	-5.6415	31.3628	-7.8674	83.1189	-33.0865	-17.3847	77.7707	6.3619	40.4948	-6.1137	77.7802	-32.2248	-14.9553	
11.7660	-22.8366	-2.1573	17.9795	0.0000	1.2500	-0.0000	59.8916	-3.5585	-17.2086	38.0370	-16.9415	1.3048	-0.0000	85.4251	3.8534	1.0632	101.8889	-15.1912	5.3569	0.0000	-11.2817	-0.8815	1.6856	84.6388	-5.9148	31.1339	-7.8179	82.9779	-33.0388	-17.5145	77.5605	6.4273	40.6609	-6.0919	77.9564	-32.2263	-14.9299	
11.7830	-22.8560	-2.0456	18.3941	0.0000	1.2500	-0.0000	57.3297	-3.6266	-18.0666	35.5477	-17.7294	1.1539	-0.0000	87.6890	4.7791	1.5481	103.1819	-14.8521	5.2890	-0.0000	-11.2287	-0.9632	1.6055	84.4433	-6.2006	30.8498	-7.7639	82.8338	-32.9866	-17.6391	77.2950	6.4950	40.8713	-6.0638	78.1250	-32.2214	-14.8920	
11.8000	-22.8994	-1.9611	18.7693	0.0000	1.2500	-0.0000	55.1119	-3.7074	-18.7736	33.6658	-18.3523	1.0547	-0.0000	89.8305	5.6652	1.8718	104.1058	-14.4619	5.1578	0.0000	-11.1724	-1.0314	1.5388	84.2437	-6.4781	30.5872	-7.7303	82.6742	-32.9261	-17.7529	76.9898	6.5921	41.0584	-6.0306	78.2727	-32.2258	-14.8304	
11.8160	-22.9804	-1.9279	19.0955	0.0000	1.2500	-0.0000	53.2781	-3.8235	-19.3097	32.4441	-18.8096	1.0268	0.0000	91.8633	6.5030	1.9731	104.6595	-13.9851	4.9544	-0.0000	-11.1075	-1.0737	1.4924	84.0271	-6.7446	30.3666	-7.7442	82.4800	-32.8544	-17.8564	76.6203	6.7459	41.1844	-5.9839	78.4093	-32.2476	-14.7265	
11.8330	-23.0860	-1.9214	19.3824	0.0000	1.2500	-0.0000	51.7843	-3.9852	-19.6885	31.8323	-19.1031	1.0430	0.0000	93.7778	7.2830	1.9309	104.8453	-13.4538	4.6713	0.0000	-11.0388	-1.1024	1.4593	83.8076	-7.0034	30.1678	-7.7790	82.2703	-32.7744	-17.9491	76.2107	6.9284	41.2875	-5.9319	78.5251	-32.2788	-14.5988	
11.8500	-23.2021	-1.9201	19.6092	0.0000	1.2500	-0.0000	50.7106	-4.1614	-19.9362	31.9241	-19.1894	1.0799	0.0000	95.4456	7.9359	1.9160	104.6558	-12.9060	4.3381	-0.0000	-10.9774	-1.1271	1.4318	83.6387	-7.2449	30.0078	-7.7787	82.0900	-32.6917	-18.0230	75.8508	7.0850	41.4144	-5.9002	78.5779	-32.3108	-14.4918	
11.8660	-23.3389	-1.9279	19.7625	0.0000	1.2500	-0.0000	50.1182	-4.3437	-20.0262	32.8076	-19.0162	1.1330	0.0000	96.8656	8.4358	2.0073	104.0816	-12.3519	3.9497	-0.0000	-10.9235	-1.1482	1.4088	83.5494	-7.4816	29.8902	-7.7096	81.9640	-32.5995	-18.0784	75.5676	7.1972	41.5993	-5.9063	78.5377	-32.3471	-14.4274	
11.8830	-23.4859	-1.9412	19.8554	0.0000	1.2500	-0.0000	49.9469	-4.5575	-19.9783	34.3948	-18.6348	1.2057	0.0000	98.0356	8.8110	2.1514	103.1312	-11.7790	3.5103	0.0000	-10.8768	-1.1652	1.3916	83.5123	-7.7026	29.8122	-7.6049	81.8673	-32.5046	-18.1153	75.3347	7.2851	41.8078	-5.9325	78.4344	-32.3841	-14.3836	
11.9000	-23.5983	-1.9291	19.9074	0.0000	1.2500	-0.0000	50.0961	-4.8168	-19.8872	36.5146	-18.1581	1.2876	0.0000	98.8237	9.0772	2.3251	101.8248	-11.1965	3.0778	0.0000	-10.8485	-1.1869	1.3762	83.4970	-7.8637	29.7807	-7.5083	81.7706	-32.4330	-18.1252	75.1621	7.3532	41.9826	-5.9520	78.3157	-32.4017	-14.3386	
11.9160	-23.6642	-1.8594	19.9260	0.0000	1.2500	-0.0000	50.5682	-5.1485	-19.8432	39.1887	-17.5307	1.3742	-0.0000	99.1940	9.2353	2.6008	100.1435	-10.6087	2.6371	0.0000	-10.8433	-1.2235	1.3567	83.4892	-7.9364	29.8091	-7.4322	81.6545	-32.4026	-18.0970	75.0809	7.4004	42.0916	-5.9621	78.1994	-32.3881	-14.2866	
11.9330	-23.6952	-1.7643	19.9038	0.0000	1.2500	-0.0000	51.3629	-5.5232	-19.7489	42.3973	-16.8079	1.4657	-0.0000	99.1817	9.2808	2.9147	98.1099	-10.0160	2.2177	-0.0000	-10.8565	-1.2649	1.3390	83.5042	-7.9493	29.8845	-7.3644	81.5387	-32.3954	-18.0418	75.0606	7.4281	42.1670	-5.9656	78.0677	-32.3553	-14.2335	
11.9500	-23.6814	-1.7089	19.8367	0.0000	1.2500	-0.0000	52.3752	-5.8655	-19.4206	45.9092	-16.2679	1.5573	-0.0000	98.7620	9.2192	3.0351	95.8029	-9.4221	1.9440	-0.0000	-10.8848	-1.2898	1.3369	83.5558	-7.9428	29.9747	-7.3120	81.4525	-32.3842	-17.9855	75.0188	7.4447	42.2486	-5.9434	77.9154	-32.3187	-14.1746	
11.9660	-23.6056	-1.7155	19.7286	0.0000	1.2500	-0.0000	53.6002	-6.1381	-18.8130	49.7271	-16.0404	1.6302	0.0000	97.8936	9.0701	2.8594	93.2294	-8.7867	1.9132	0.0000	-10.9333	-1.2888	1.3547	83.6602	-7.9292	30.0754	-7.2825	81.4054	-32.3572	-17.9362	74.9176	7.4536	42.3730	-5.8738	77.7148	-32.2773	-14.1005	
11.9830	-23.4847	-1.7613	19.5757	0.0000	1.2500	-0.0000	55.0469	-6.3558	-17.9730	53.8510	-15.9951	1.6911	0.0000	96.6189	8.8217	2.4817	90.3751	-8.1504	2.0243	-0.0000	-10.9971	-1.2714	1.3881	83.8011	-7.8959	30.1909	-7.2684	81.3878	-32.3262	-17.8858	74.7951	7.4513	42.5038	-5.7788	77.4935	-32.2321	-14.0207	
12.0000	-23.3603	-1.8445	19.3627	0.0000	1.2500	-0.0000	56.6326	-6.5145	-16.8607	58.0436	-16.0194	1.7800	0.0000	95.0392	8.4355	1.9591	87.2839	-7.6366	2.1010	-0.0000	-11.0580	-1.2449	1.4382	83.9435	-7.8468	30.3020	-7.2544	81.4012	-32.2990	-17.8353	74.6823	7.4357	42.5708	-5.7049	77.3293	-32.2021	-13.9590	
12.0160	-23.2345	-1.9847	19.0875	0.0000	1.2500	-0.0000	58.3545	-6.5990	-15.3590	62.2905	-16.1636	1.9280	-0.0000	93.1446	7.9078	1.2604	83.9345	-7.2747	2.0694	0.0000	-11.1143	-1.2015	1.5053	84.0770	-7.7831	30.4164	-7.2272	81.4331	-32.2781	-17.7800	74.5899	7.4109	42.5244	-5.6671	77.2782	-32.1952	-13.9179	
